<svg width="100" height="101" viewBox="0 0 100 101" fill="none" xmlns="http://www.w3.org/2000/svg">
<path d="M7.14352 78.583L0 78.583L8.36164e-06 0.017395L7.14353 0.0173951L7.14352 78.583Z" fill="#77E1FF"/>
<path d="M21.4306 78.583L14.2871 78.583L14.2871 0.017395L21.4306 0.0173951L21.4306 78.583Z" fill="#77E1FF"/>
<path d="M35.7148 78.583L28.5713 78.583L28.5713 0.017395L35.7148 0.0173951L35.7148 78.583Z" fill="#77E1FF"/>
<path d="M50 78.583L42.8564 78.583L42.8565 0.017395L50 0.0173951L50 78.583Z" fill="#77E1FF"/>
<path d="M64.2861 78.583L57.1426 78.583L57.1426 0.017395L64.2861 0.0173951L64.2861 78.583Z" fill="#77E1FF"/>
<path d="M78.5761 78.583L71.4326 78.583L71.4326 0.0174026L78.5761 0.0174028L78.5761 78.583Z" fill="#77E1FF"/>
<path d="M28.5761 100.018L21.4326 100.018L21.4326 21.452L28.5761 21.452L28.5761 100.018Z" fill="#161EDE"/>
<path d="M42.8564 100.014L35.7129 100.014L35.7129 21.4481L42.8564 21.4481L42.8564 100.014Z" fill="#161EDE"/>
<path d="M57.1425 100.018L49.999 100.018L49.999 21.452L57.1426 21.452L57.1425 100.018Z" fill="#161EDE"/>
<path d="M71.4326 100.014L64.2891 100.014L64.2891 21.4481L71.4326 21.4481L71.4326 100.014Z" fill="#161EDE"/>
<path d="M85.7168 100.014L78.5732 100.014L78.5733 21.4481L85.7168 21.4481L85.7168 100.014Z" fill="#161EDE"/>
<path d="M99.999 100.018L92.8555 100.018L92.8555 21.452L99.999 21.452L99.999 100.018Z" fill="#161EDE"/>
</svg>
