<svg width="112" height="50" fill="none" xmlns="http://www.w3.org/2000/svg"><path d="M3.952 39.283H.381V0h3.571v39.283ZM11.095 39.283H7.524V0h3.571v39.283ZM18.237 39.283h-3.571V0h3.571v39.283ZM25.379 39.283h-3.572V0h3.572v39.283ZM32.522 39.283H28.95V0h3.572v39.283ZM39.665 39.283h-3.571V0h3.571v39.283Z" fill="#77E1FF"/><path d="M14.667 50h-3.571V10.717h3.571V50ZM21.807 49.998h-3.572V10.715h3.572v39.283ZM28.95 50h-3.572V10.717h3.572V50ZM36.093 49.998h-3.571V10.715h3.571v39.283ZM43.235 49.998h-3.571V10.715h3.571v39.283ZM50.376 50h-3.571V10.717h3.571V50Z" fill="#161EDE"/><path d="M108.748 34.833v-3.317h.715l.664 1.478.673-1.478h.705v3.317h-.642v-2.142l-.467 1.08h-.539l-.466-1.09v2.152h-.643Zm-2.073 0v-2.758h-.975v-.56h2.633v.56h-.974v2.758h-.684ZM67.606 32.437h3.722c2.387 0 3.58-.987 3.58-2.961 0-.959-.328-1.701-.986-2.228-.64-.545-1.598-.817-2.876-.817h-3.44v6.006Zm0-14.211v5.836h2.622c1.41 0 2.453-.282 3.13-.846.695-.582 1.043-1.334 1.043-2.256 0-.808-.31-1.466-.93-1.973-.602-.508-1.523-.761-2.764-.761h-3.101Zm-2.904-2.397h6.231c1.993 0 3.562.47 4.709 1.41 1.147.92 1.72 2.142 1.72 3.665 0 1.053-.3 1.974-.902 2.763-.583.79-1.335 1.297-2.256 1.523a4.48 4.48 0 0 1 2.594 1.438c.714.77 1.071 1.805 1.071 3.102 0 1.503-.516 2.735-1.55 3.693-1.016.94-2.454 1.41-4.314 1.41h-7.303V15.83ZM89.855 20.538h2.763v14.295h-2.763V32.38c-.752 1.748-2.237 2.622-4.456 2.622-1.41 0-2.528-.413-3.355-1.24-.827-.846-1.24-2.002-1.24-3.468v-9.756h2.79v9.079c0 .977.236 1.73.706 2.256.489.507 1.156.76 2.002.76 1.071 0 1.926-.375 2.566-1.127.657-.752.987-1.814.987-3.186v-7.782ZM103.862 14.87v2.425a3.36 3.36 0 0 0-1.353-.282c-1.373 0-2.059.818-2.059 2.453v1.072h3.017v2.142h-3.017v12.153h-2.763V22.681h-2.284v-2.143h2.284v-1.1c0-1.485.395-2.65 1.184-3.496.809-.865 1.936-1.297 3.384-1.297.526 0 1.062.075 1.607.225Z" fill="#090A3A"/></svg>